<svg width="34" height="34" viewBox="0 0 34 34" fill="none" xmlns="http://www.w3.org/2000/svg">
<g clip-path="url(#clip0_1270_2924)">
<path d="M17.06 33.7875C16.5424 33.7875 16.0592 33.6651 15.61 33.4509L11.0176 31.0344C10.3271 30.6978 10.6724 30.5754 10.8792 30.5142C11.8116 30.2388 11.9845 30.1776 12.9513 29.688C13.0547 29.6268 13.1927 29.6574 13.2961 29.7186L16.8187 31.5847C16.9566 31.6459 17.1295 31.6459 17.2329 31.5847L31.0101 24.5178C31.1485 24.4566 31.2175 24.3347 31.2175 24.1817V10.0785C31.2175 9.92546 31.1485 9.80306 31.0106 9.74186L17.2329 2.70556C17.095 2.64436 16.9216 2.64436 16.8187 2.70556L3.04103 9.74186C2.90216 9.80306 2.8332 9.95606 2.8332 10.0785V24.1817C2.8332 24.3036 2.90263 24.4566 3.04055 24.5178L6.80449 26.4452C8.84162 27.3632 10.1193 26.2922 10.1193 25.2216V11.302C10.1193 11.1184 10.2916 10.9348 10.5335 10.9348H12.2948C12.5016 10.9348 12.709 11.0878 12.709 11.302V25.2216C12.709 27.6386 11.2245 29.0458 8.63427 29.0458C7.8403 29.0458 7.21872 29.0458 5.4579 28.2808L1.83187 26.4452C1.391 26.2184 1.02502 25.8927 0.770621 25.5008C0.516217 25.1089 0.382314 24.6645 0.382324 24.2123V10.1091C0.382279 9.65667 0.516215 9.21221 0.770709 8.82023C1.0252 8.42825 1.39132 8.10252 1.83235 7.87569L15.6095 0.808788C16.4734 0.380388 17.6471 0.380388 18.5105 0.808788L32.2877 7.87569C32.7289 8.10247 33.0951 8.42817 33.3496 8.82016C33.6042 9.21214 33.7382 9.65663 33.7382 10.1091V24.2123C33.7382 24.6646 33.6041 25.109 33.3495 25.5009C33.095 25.8928 32.7288 26.2185 32.2877 26.4452L18.5105 33.5121C18.0963 33.6651 17.5782 33.7875 17.06 33.7875Z" fill="#2E2E2E"/>
<path d="M21.3422 24.0899C15.2988 24.0899 14.0562 21.6423 14.0562 19.5619C14.0562 19.3783 14.2285 19.1947 14.4704 19.1947H16.2662C16.4735 19.1947 16.6459 19.3171 16.6459 19.5007C16.9222 21.1221 17.7162 21.9177 21.3767 21.9177C24.2772 21.9177 25.5199 21.3363 25.5199 19.9597C25.5199 19.1645 25.1751 18.5827 20.6512 18.1853C16.8873 17.8487 14.5398 17.1143 14.5398 14.453C14.5398 11.9752 16.8877 10.5069 20.8241 10.5069C25.2441 10.5069 27.4191 11.8528 27.6959 14.7896C27.6959 14.8814 27.6609 14.9732 27.592 15.065C27.523 15.1262 27.4196 15.1874 27.3157 15.1874H25.4854C25.3969 15.1848 25.3117 15.1564 25.2431 15.1066C25.1745 15.0569 25.1262 14.9885 25.1057 14.912C24.6914 13.229 23.6212 12.6786 20.7896 12.6786C17.6127 12.6786 17.233 13.6578 17.233 14.3918C17.233 15.2792 17.6817 15.5546 21.9638 16.0438C26.2109 16.5334 28.2131 17.2372 28.2131 19.8679C28.2131 22.5603 25.6928 24.0899 21.3422 24.0899Z" fill="#2E2E2E"/>
</g>
<defs>
<clipPath id="clip0_1270_2924">
<rect width="34" height="34" fill="white"/>
</clipPath>
</defs>
</svg>
