<svg width="34" height="34" viewBox="0 0 34 34" fill="none" xmlns="http://www.w3.org/2000/svg">
<g clip-path="url(#clip0_1270_2901)">
<path d="M31.5095 2.49046C33.1086 4.08957 33.9388 6.0927 33.9994 8.49986V25.5001C33.9388 27.9067 33.1086 29.9104 31.5095 31.5095C29.9104 33.1086 27.9067 33.9388 25.4996 34H8.49986C6.0927 33.9388 4.08957 33.1086 2.49046 31.5095C0.891352 29.9104 0.061199 27.9067 0 25.5001V8.49986C0.061199 6.0927 0.891352 4.08957 2.49046 2.49046C4.08957 0.891352 6.0927 0.061199 8.49986 0H25.4996C27.9067 0.061199 29.9104 0.891352 31.5095 2.49046ZM29.1647 16.1701C28.6304 15.6386 28.3527 14.9717 28.3306 14.1693V8.49986C28.3136 7.69747 28.0382 7.02938 27.5044 6.49559C26.9706 5.96123 26.302 5.68641 25.4996 5.66941H22.6691V19.8307L11.3309 5.66941H8.49986C7.69747 5.68641 7.02938 5.96123 6.49559 6.49559C5.96123 7.02938 5.68641 7.69747 5.66941 8.49986V14.1693C5.64731 14.9717 5.36964 15.6386 4.83529 16.1701C4.3015 16.7011 3.63341 16.9776 2.83102 16.9997C3.63341 17.0224 4.3015 17.2989 4.83529 17.8299C5.36964 18.3614 5.64731 19.0284 5.66941 19.8307V25.5001C5.68641 26.302 5.96123 26.9706 6.49559 27.5044C7.02938 28.0382 7.69747 28.3136 8.49986 28.3306H11.3309V14.1693L22.6691 28.3306H25.4996C26.302 28.3136 26.9706 28.0382 27.5044 27.5044C28.0382 26.9706 28.3136 26.302 28.3306 25.5001V19.8307C28.3527 19.0284 28.6304 18.3614 29.1647 17.8299C29.6985 17.2989 30.3666 17.0224 31.169 16.9997C30.3666 16.9776 29.6985 16.7011 29.1647 16.1701Z" fill="#2E2E2E"/>
</g>
<defs>
<clipPath id="clip0_1270_2901">
<rect width="34" height="34" fill="white"/>
</clipPath>
</defs>
</svg>
