<svg width="34" height="34" viewBox="0 0 34 34" fill="none" xmlns="http://www.w3.org/2000/svg">
<g clip-path="url(#clip0_1270_2928)">
<path d="M34 0H0V34H34V0Z" fill="#2E2E2E"/>
<path d="M6.05979 21.7222C5.81939 21.7222 5.61505 21.6421 5.44676 21.4819C5.27848 21.3176 5.19434 21.1224 5.19434 20.8965C5.19434 20.6664 5.27848 20.4693 5.44676 20.3049C5.61505 20.1406 5.81939 20.0584 6.05979 20.0584C6.30421 20.0584 6.51055 20.1406 6.67884 20.3049C6.85113 20.4693 6.93728 20.6664 6.93728 20.8965C6.93728 21.1224 6.85113 21.3176 6.67884 21.4819C6.51055 21.6421 6.30421 21.7222 6.05979 21.7222Z" fill="white"/>
<path d="M15.6702 21.5866H14.1075L9.99061 15.0917C9.88645 14.9273 9.80025 14.7568 9.73218 14.5802H9.69609C9.72815 14.7692 9.74418 15.1738 9.74418 15.7941V21.5866H8.36182V12.75H10.0266L14.0054 19.0909C14.1737 19.3539 14.2818 19.5346 14.3299 19.6332H14.3539C14.3139 19.3991 14.2938 19.0026 14.2938 18.4439V12.75H15.6702V21.5866Z" fill="white"/>
<path d="M22.4021 21.5866H17.564V12.75H22.2098V13.9948H18.9944V16.4966H21.9574V17.7352H18.9944V20.348H22.4021V21.5866Z" fill="white"/>
<path d="M29.2777 13.9948H26.8015V21.5866H25.371V13.9948H22.9009V12.75H29.2777V13.9948Z" fill="white"/>
</g>
<defs>
<clipPath id="clip0_1270_2928">
<rect width="34" height="34" fill="white"/>
</clipPath>
</defs>
</svg>
