<svg width="109" height="32" viewBox="0 0 109 32" fill="none" xmlns="http://www.w3.org/2000/svg">
<path d="M41.0177 13.7298C41.0177 10.5013 40.0726 8.84389 38.1825 8.75313C37.4304 8.71856 36.6961 8.83525 35.9818 9.10537C35.4117 9.30417 35.0279 9.50082 34.826 9.69962V17.4055C36.035 18.1446 37.1088 18.4881 38.0449 18.4341C40.026 18.3066 41.0177 16.74 41.0177 13.7298ZM43.3492 13.8637C43.3492 15.5039 42.9543 16.8653 42.1601 17.9479C41.275 19.1732 40.0482 19.8042 38.4798 19.8387C37.2973 19.8755 36.0794 19.5146 34.826 18.7583V25.7619L32.7983 25.0574V9.51162C33.1311 9.11401 33.5593 8.77258 34.0784 8.48302C35.2852 7.798 36.7516 7.44577 38.4775 7.42848L38.5064 7.45657C40.0837 7.43712 41.2994 8.06812 42.1535 9.34739C42.9499 10.5208 43.3492 12.0248 43.3492 13.8637Z" fill="#2E2E2E"/>
<path d="M55.7418 18.4601C55.7418 20.6599 55.5155 22.1833 55.063 23.0304C54.6082 23.8775 53.743 24.5539 52.4652 25.0574C51.4292 25.455 50.3088 25.6711 49.1065 25.7078L48.7715 24.4631C49.9938 24.3011 50.8546 24.139 51.3537 23.9769C52.3365 23.6528 53.0109 23.1558 53.3814 22.4902C53.6787 21.9478 53.8251 20.9127 53.8251 19.3806V18.8663C52.4385 19.48 50.9855 19.7847 49.4658 19.7847C48.4675 19.7847 47.5868 19.48 46.8281 18.8663C45.9762 18.1986 45.5503 17.3515 45.5503 16.3251V8.10486L47.5779 7.42848V15.7027C47.5779 16.5865 47.8708 17.2672 48.4564 17.7448C49.0421 18.2224 49.8008 18.4514 50.7303 18.4341C51.6599 18.4147 52.656 18.0646 53.7141 17.3796V7.72669H55.7418V18.4601Z" fill="#2E2E2E"/>
<path d="M63.6569 19.7307C63.4151 19.7501 63.1932 19.7588 62.9891 19.7588C61.8422 19.7588 60.9481 19.493 60.3092 18.9592C59.6725 18.4255 59.3531 17.6886 59.3531 16.7486V8.96923H57.9644V7.72669H59.3531V4.42695L61.3785 3.72464V7.72669H63.6569V8.96923H61.3785V16.6946C61.3785 17.4358 61.5826 17.9609 61.9908 18.2677C62.3413 18.5206 62.8982 18.6653 63.6569 18.7021V19.7307Z" fill="#2E2E2E"/>
<path d="M75.9337 19.5686H73.906V11.9448C73.906 11.1691 73.7197 10.5013 73.3492 9.94381C72.9211 9.31282 72.3265 8.99732 71.5634 8.99732C70.6338 8.99732 69.4714 9.47489 68.076 10.43V19.5686H66.0483V1.34545L68.076 0.723099V9.02325C69.3716 8.10485 70.7869 7.64458 72.3243 7.64458C73.398 7.64458 74.2677 7.99681 74.9332 8.69911C75.6009 9.40141 75.9337 10.2766 75.9337 11.3225V19.5686Z" fill="#2E2E2E"/>
<path d="M86.711 13.4186C86.711 12.1782 86.4692 11.1539 85.9878 10.3436C85.4155 9.35604 84.5259 8.83525 83.3235 8.78123C81.1006 8.90656 79.9914 10.4581 79.9914 13.4316C79.9914 14.7951 80.2221 15.9339 80.688 16.848C81.2825 18.0127 82.1743 18.5876 83.3634 18.5681C85.5952 18.5508 86.711 16.835 86.711 13.4186ZM88.9317 13.4316C88.9317 15.197 88.4681 16.6665 87.543 17.8399C86.5247 19.1537 85.1182 19.8128 83.3235 19.8128C81.5443 19.8128 80.1578 19.1537 79.1573 17.8399C78.2499 16.6665 77.7974 15.197 77.7974 13.4316C77.7974 11.772 78.2876 10.376 79.2682 9.23935C80.3042 8.03354 81.6663 7.42848 83.3501 7.42848C85.0339 7.42848 86.4049 8.03354 87.4609 9.23935C88.4414 10.376 88.9317 11.772 88.9317 13.4316Z" fill="#2E2E2E"/>
<path d="M100.556 19.5686H98.5286V11.5127C98.5286 10.6288 98.2557 9.93949 97.7099 9.44247C97.1642 8.94762 96.4366 8.70775 95.5292 8.7272C94.5664 8.74449 93.6502 9.05134 92.7806 9.6456V19.5686H90.7529V9.40142C91.9198 8.57378 92.9936 8.03354 93.9741 7.78071C94.8992 7.54517 95.7156 7.42848 96.4188 7.42848C96.9002 7.42848 97.3528 7.47386 97.7787 7.56462C98.5751 7.74398 99.2229 8.07676 99.7221 8.56513C100.279 9.10537 100.556 9.75365 100.556 10.5121V19.5686Z" fill="#2E2E2E"/>
<path d="M12.772 1.41843C11.7287 1.42315 10.7325 1.50982 9.85585 1.66092C7.27345 2.10532 6.80459 3.03548 6.80459 4.75087V7.01637H12.9071V7.77154H6.80459H4.51437C2.7408 7.77154 1.18782 8.80992 0.702064 10.7853C0.141754 13.0495 0.116901 14.4624 0.702064 16.8266C1.13585 18.5864 2.1718 19.8404 3.94537 19.8404H6.04355V17.1245C6.04355 15.1625 7.78632 13.4318 9.85585 13.4318H15.9513C17.648 13.4318 19.0025 12.071 19.0025 10.4112V4.75087C19.0025 3.13992 17.6073 1.92978 15.9513 1.66092C14.9029 1.49093 13.8152 1.41371 12.772 1.41843ZM9.47178 3.24053C10.1021 3.24053 10.6169 3.75014 10.6169 4.37675C10.6169 5.00113 10.1021 5.50604 9.47178 5.50604C8.83917 5.50604 8.32667 5.00113 8.32667 4.37675C8.32667 3.75014 8.83917 3.24053 9.47178 3.24053Z" fill="url(#paint0_linear_1270_2885)"/>
<path d="M19.7637 7.77153V10.4112C19.7637 12.4576 17.9825 14.1801 15.9514 14.1801H9.85595C8.18631 14.1801 6.80469 15.572 6.80469 17.2007V22.861C6.80469 24.472 8.2428 25.4195 9.85595 25.8817C11.7877 26.435 13.6401 26.535 15.9514 25.8817C17.4877 25.4484 19.0026 24.5764 19.0026 22.861V20.5955H12.9072V19.8404H19.0026H22.0539C23.8275 19.8404 24.4884 18.6353 25.1052 16.8266C25.7423 14.9646 25.7152 13.1739 25.1052 10.7853C24.6668 9.06544 23.8297 7.77153 22.0539 7.77153H19.7637ZM16.3354 22.1059C16.968 22.1059 17.4806 22.6108 17.4806 23.2351C17.4806 23.8617 16.968 24.3714 16.3354 24.3714C15.7051 24.3714 15.1903 23.8617 15.1903 23.2351C15.1903 22.6108 15.7051 22.1059 16.3354 22.1059Z" fill="url(#paint1_linear_1270_2885)"/>
<path d="M104.505 5.96581H104.86V3.79398H105.702V3.53511H103.663V3.79398H104.505V5.96581ZM106.018 5.96581H106.321V3.98225L106.981 5.96556H107.319L108.006 3.98898V5.96581H108.337V3.53511H107.899L107.148 5.61751L106.508 3.53511H106.018V5.96581Z" fill="#2E2E2E"/>
<path opacity="0.44382" d="M21.1541 29.7296C21.1541 29.9324 20.9426 30.1333 20.5316 30.3207C20.1206 30.5081 19.5183 30.6784 18.7589 30.8218C17.9995 30.9652 17.098 31.079 16.1058 31.1566C15.1136 31.2343 14.0502 31.2742 12.9762 31.2742C11.9023 31.2742 10.8389 31.2343 9.84669 31.1566C8.8545 31.079 7.95298 30.9652 7.19359 30.8218C6.4342 30.6784 5.83182 30.5081 5.42084 30.3207C5.00987 30.1333 4.79834 29.9324 4.79834 29.7296C4.79834 29.5267 5.00987 29.3259 5.42084 29.1384C5.83182 28.951 6.4342 28.7808 7.19359 28.6373C7.95298 28.4939 8.8545 28.3801 9.84669 28.3025C10.8389 28.2249 11.9023 28.1849 12.9762 28.1849C14.0502 28.1849 15.1136 28.2249 16.1058 28.3025C17.098 28.3801 17.9995 28.4939 18.7589 28.6373C19.5183 28.7808 20.1206 28.951 20.5316 29.1384C20.9426 29.3259 21.1541 29.5267 21.1541 29.7296Z" fill="url(#paint2_radial_1270_2885)"/>
<defs>
<linearGradient id="paint0_linear_1270_2885" x1="0.272461" y1="1.41823" x2="14.0321" y2="13.4553" gradientUnits="userSpaceOnUse">
<stop stop-color="#2E2E2E"/>
<stop offset="1" stop-color="#2E2E2E"/>
</linearGradient>
<linearGradient id="paint1_linear_1270_2885" x1="16.1888" y1="23.0447" x2="11.3145" y2="16.0326" gradientUnits="userSpaceOnUse">
<stop stop-color="#2E2E2E"/>
<stop offset="1" stop-color="#2E2E2E"/>
</linearGradient>
<radialGradient id="paint2_radial_1270_2885" cx="0" cy="0" r="1" gradientUnits="userSpaceOnUse" gradientTransform="translate(12.9762 29.7296) rotate(-90) scale(1.54466 6.97009)">
<stop stop-color="#B8B8B8" stop-opacity="0.498039"/>
<stop offset="1" stop-color="#7F7F7F" stop-opacity="0"/>
</radialGradient>
</defs>
</svg>
