<svg width="194" height="56" viewBox="0 0 194 56" fill="none" xmlns="http://www.w3.org/2000/svg">
<g clip-path="url(#clip0_1270_680)">
<path d="M79.1171 39.7637C76.9715 39.7637 75.0595 39.2674 73.3811 38.2745C71.724 37.2601 70.4175 35.8787 69.4615 34.1305C68.5268 32.3606 68.0593 30.3319 68.0593 28.044C68.0593 25.7561 68.5268 23.7381 69.4615 21.9898C70.4175 20.22 71.724 18.8387 73.3811 17.8458C75.0382 16.8314 76.9396 16.3242 79.0852 16.3242C80.5298 16.3242 81.8895 16.594 83.1642 17.1336C84.4389 17.6516 85.5648 18.3746 86.5421 19.3027C87.5405 20.2308 88.3053 21.31 88.8365 22.5402L85.4586 23.9323C85.0762 23.1123 84.5558 22.3891 83.8971 21.7632C83.2598 21.1157 82.5269 20.6193 81.6983 20.274C80.8698 19.9286 79.9988 19.756 79.0852 19.756C77.6831 19.756 76.4298 20.1121 75.325 20.8243C74.2415 21.5366 73.3811 22.5186 72.7438 23.7705C72.1277 25.0007 71.8196 26.4252 71.8196 28.044C71.8196 29.6627 72.1277 31.0979 72.7438 32.3498C73.3811 33.6017 74.252 34.5837 75.3568 35.296C76.4827 36.0082 77.7574 36.3643 79.1808 36.3643C80.1155 36.3643 80.9867 36.1808 81.7939 35.814C82.6225 35.4255 83.3554 34.8967 83.9927 34.2276C84.6514 33.5584 85.1718 32.7814 85.5542 31.8966L88.9321 33.2887C88.4009 34.5621 87.6469 35.6952 86.6695 36.6881C85.6922 37.6593 84.5558 38.4147 83.2598 38.9543C81.9638 39.494 80.583 39.7637 79.1171 39.7637Z" fill="black"/>
<path d="M94.4021 39.3753V16.7128H102.273C103.803 16.7128 105.152 17.0149 106.32 17.6193C107.489 18.2236 108.402 19.0654 109.061 20.1445C109.719 21.2021 110.049 22.4324 110.049 23.8353C110.049 25.2381 109.698 26.4793 108.997 27.5584C108.317 28.6375 107.372 29.4902 106.161 30.116C104.95 30.7204 103.58 31.0225 102.05 31.0225H98.0987V39.3753H94.4021ZM106.766 39.3753L101.54 30.1808L104.408 28.1735L110.941 39.3753H106.766ZM98.0987 27.5584H102.433C103.155 27.5584 103.792 27.3965 104.345 27.0728C104.918 26.749 105.375 26.3065 105.715 25.7454C106.076 25.1843 106.257 24.5475 106.257 23.8353C106.257 22.7562 105.874 21.8712 105.109 21.1805C104.345 20.4899 103.357 20.1445 102.146 20.1445H98.0987V27.5584Z" fill="black"/>
<path d="M116.604 39.3753V16.7128H120.301V39.3753H116.604Z" fill="black"/>
<path d="M132.131 39.3753V20.1445H125.28V16.7128H142.679V20.1445H135.827V39.3753H132.131Z" fill="black"/>
<path d="M156.167 39.8285C154.403 39.8285 152.853 39.4724 151.514 38.7601C150.197 38.0262 149.167 37.0012 148.423 35.6845C147.701 34.3679 147.34 32.8355 147.34 31.0873V16.7128H151.036V31.0873C151.036 32.1449 151.249 33.0729 151.673 33.8715C152.12 34.6485 152.736 35.2636 153.522 35.7169C154.308 36.1485 155.211 36.3644 156.23 36.3644C157.271 36.3644 158.185 36.1485 158.971 35.7169C159.778 35.2636 160.394 34.6485 160.819 33.8715C161.244 33.0729 161.457 32.1449 161.457 31.0873V16.7128H165.153V31.0873C165.153 32.8355 164.782 34.3679 164.038 35.6845C163.316 37.0012 162.275 38.0262 160.915 38.7601C159.576 39.4724 157.994 39.8285 156.167 39.8285Z" fill="black"/>
<path d="M172.039 39.3753V16.7128H175.991L183.001 27.2023L189.948 16.7128H193.932V39.3753H190.235V22.6374L182.969 33.5478L175.736 22.7021V39.3753H172.039Z" fill="black"/>
<path d="M0.0686035 14L24.184 56L0.0686035 42V14Z" fill="black"/>
<path d="M48.2994 14L0.0686035 13.9997L24.184 0L48.2994 14Z" fill="#E6343E"/>
<path d="M48.2993 14L24.1838 56L48.2993 42V14Z" fill="#E6343E"/>
<path d="M12.1262 21L24.1838 28V42L12.1262 21Z" fill="black"/>
<path d="M36.2416 21.0001L24.1838 28.0002L12.1262 21L36.2416 21.0001Z" fill="#E6343E"/>
<path d="M36.2415 21L24.1838 28V42L36.2415 21Z" fill="#E6343E"/>
</g>
<defs>
<clipPath id="clip0_1270_680">
<rect width="194" height="56" fill="white"/>
</clipPath>
</defs>
</svg>
