<svg xmlns="http://www.w3.org/2000/svg" xmlns:xlink="http://www.w3.org/1999/xlink"><symbol id="sprite-arrow" viewBox="0 0 15 16"><path d="M6.929.929a1 1 0 0 1 1.414 0l6.364 6.364a1 1 0 0 1 0 1.414l-6.364 6.364a1 1 0 0 1-1.414-1.414L11.586 9H0V7h11.586L6.929 2.343a1 1 0 0 1 0-1.414"/></symbol><use xlink:href="#sprite-arrow" width="15" height="16" y="0"/><view id="sprite-arrow-view" viewBox="0 0 15 16"/><symbol id="sprite-email" viewBox="0 0 20 16"><path d="M2 16q-.824 0-1.412-.588A1.93 1.93 0 0 1 0 14V2Q0 1.176.588.588A1.93 1.93 0 0 1 2 0h16q.824 0 1.413.588Q20 1.175 20 2v12q0 .825-.587 1.412A1.93 1.93 0 0 1 18 16zm8-7L2 4v10h16V4zm0-2 8-5H2zM2 4V2v12z"/></symbol><use xlink:href="#sprite-email" width="20" height="16" y="16"/><view id="sprite-email-view" viewBox="0 16 20 16"/><symbol id="sprite-info" viewBox="0 0 24 24"><path d="M10.834 17.833h2.333v-7h-2.333zM12 8.5q.496 0 .831-.335.336-.336.336-.832t-.336-.831a1.13 1.13 0 0 0-.83-.335q-.496 0-.832.335t-.335.831.335.832T12 8.5m0 15.167a11.4 11.4 0 0 1-4.55-.92 11.8 11.8 0 0 1-3.704-2.493 11.8 11.8 0 0 1-2.494-3.704A11.4 11.4 0 0 1 .333 12q0-2.42.92-4.55a11.8 11.8 0 0 1 2.493-3.704A11.8 11.8 0 0 1 7.45 1.252 11.4 11.4 0 0 1 12 .333q2.42 0 4.55.919a11.8 11.8 0 0 1 3.704 2.494 11.8 11.8 0 0 1 2.494 3.704 11.4 11.4 0 0 1 .919 4.55q0 2.42-.919 4.55a11.8 11.8 0 0 1-2.494 3.704 11.8 11.8 0 0 1-3.704 2.494 11.4 11.4 0 0 1-4.55.919m0-2.334q3.909 0 6.621-2.712T21.334 12t-2.713-6.62q-2.712-2.714-6.62-2.713T5.378 5.379 2.667 12t2.712 6.622Q8.093 21.333 12 21.333"/></symbol><use xlink:href="#sprite-info" width="24" height="24" y="32"/><view id="sprite-info-view" viewBox="0 32 24 24"/><symbol id="sprite-social_linkedin" viewBox="0 0 34 34"><path d="M30.223 0A3.78 3.78 0 0 1 34 3.777v26.446A3.78 3.78 0 0 1 30.223 34H3.777A3.78 3.78 0 0 1 0 30.223V3.777A3.78 3.78 0 0 1 3.777 0zM5.21 29.277h5.07v-16.37H5.21zm18.11-16.87c-3.456 0-4.92 2.677-4.936 2.705v-2.205H13.52v16.37h4.863v-8.592c0-2.303 1.06-3.673 3.089-3.673 1.864 0 2.76 1.317 2.76 3.673v8.592h5.044V18.913c0-4.385-2.485-6.506-5.958-6.506M7.72 4.723c-1.656 0-2.997 1.352-2.997 3.02s1.342 3.02 2.998 3.02 2.997-1.352 2.997-3.02-1.341-3.02-2.997-3.02"/></symbol><use xlink:href="#sprite-social_linkedin" width="34" height="34" y="56"/><view id="sprite-social_linkedin-view" viewBox="0 56 34 34"/><symbol id="sprite-social_x" viewBox="0 0 32 29"><path d="M25.282 0h4.905l-10.77 12.306L32 29h-9.874l-7.73-10.145L5.544 29H.64l11.41-13.162L0 0h10.12l6.984 9.267zm-1.716 26.11h2.719L8.69 2.783H5.77z"/></symbol><use xlink:href="#sprite-social_x" width="32" height="29" y="90"/><view id="sprite-social_x-view" viewBox="0 90 32 29"/></svg>