<svg width="46" height="46" viewBox="0 0 46 46" fill="none" xmlns="http://www.w3.org/2000/svg">
<path d="M23.1667 33.7083C25.3389 33.7083 27.3115 33.0934 29.0844 31.8635C30.8573 30.6337 32.1431 29.0125 32.9417 27H13.3917C14.1903 29.0125 15.476 30.6337 17.249 31.8635C19.0219 33.0934 20.9944 33.7083 23.1667 33.7083ZM15.1167 21.25L17.225 19.2375L19.2375 21.25L21.25 19.2375L17.225 15.1167L13.1042 19.2375L15.1167 21.25ZM27.0958 21.25L29.1083 19.2375L31.2167 21.25L33.2292 19.2375L29.1083 15.1167L25.0833 19.2375L27.0958 21.25ZM23.1667 42.3333C20.5153 42.3333 18.0236 41.8302 15.6917 40.824C13.3597 39.8177 11.3312 38.4521 9.60625 36.7271C7.88125 35.0021 6.51562 32.9736 5.50937 30.6417C4.50313 28.3097 4 25.8181 4 23.1667C4 20.5153 4.50313 18.0236 5.50937 15.6917C6.51562 13.3597 7.88125 11.3312 9.60625 9.60625C11.3312 7.88125 13.3597 6.51562 15.6917 5.50937C18.0236 4.50313 20.5153 4 23.1667 4C25.8181 4 28.3097 4.50313 30.6417 5.50937C32.9736 6.51562 35.0021 7.88125 36.7271 9.60625C38.4521 11.3312 39.8177 13.3597 40.824 15.6917C41.8302 18.0236 42.3333 20.5153 42.3333 23.1667C42.3333 25.8181 41.8302 28.3097 40.824 30.6417C39.8177 32.9736 38.4521 35.0021 36.7271 36.7271C35.0021 38.4521 32.9736 39.8177 30.6417 40.824C28.3097 41.8302 25.8181 42.3333 23.1667 42.3333ZM23.1667 38.5C27.4472 38.5 31.0729 37.0146 34.0437 34.0437C37.0146 31.0729 38.5 27.4472 38.5 23.1667C38.5 18.8861 37.0146 15.2604 34.0437 12.2896C31.0729 9.31875 27.4472 7.83333 23.1667 7.83333C18.8861 7.83333 15.2604 9.31875 12.2896 12.2896C9.31875 15.2604 7.83333 18.8861 7.83333 23.1667C7.83333 27.4472 9.31875 31.0729 12.2896 34.0437C15.2604 37.0146 18.8861 38.5 23.1667 38.5Z" fill="#1D2F6F"/>
</svg>
