<svg width="47" height="46" viewBox="0 0 47 46" fill="none" xmlns="http://www.w3.org/2000/svg">
<path d="M11.7497 38.3334C10.6726 38.3334 9.75054 37.9581 8.98353 37.2074C8.21651 36.4567 7.83301 35.5542 7.83301 34.5001C7.83301 33.4459 8.21651 32.5435 8.98353 31.7928C9.75054 31.0421 10.6726 30.6667 11.7497 30.6667C12.8268 30.6667 13.7488 31.0421 14.5158 31.7928C15.2828 32.5435 15.6663 33.4459 15.6663 34.5001C15.6663 35.5542 15.2828 36.4567 14.5158 37.2074C13.7488 37.9581 12.8268 38.3334 11.7497 38.3334ZM11.7497 26.8334C10.6726 26.8334 9.75054 26.4581 8.98353 25.7074C8.21651 24.9567 7.83301 24.0542 7.83301 23.0001C7.83301 21.9459 8.21651 21.0435 8.98353 20.2928C9.75054 19.5421 10.6726 19.1667 11.7497 19.1667C12.8268 19.1667 13.7488 19.5421 14.5158 20.2928C15.2828 21.0435 15.6663 21.9459 15.6663 23.0001C15.6663 24.0542 15.2828 24.9567 14.5158 25.7074C13.7488 26.4581 12.8268 26.8334 11.7497 26.8334ZM11.7497 15.3334C10.6726 15.3334 9.75054 14.9581 8.98353 14.2074C8.21651 13.4567 7.83301 12.5542 7.83301 11.5001C7.83301 10.4459 8.21651 9.54348 8.98353 8.79279C9.75054 8.0421 10.6726 7.66675 11.7497 7.66675C12.8268 7.66675 13.7488 8.0421 14.5158 8.79279C15.2828 9.54348 15.6663 10.4459 15.6663 11.5001C15.6663 12.5542 15.2828 13.4567 14.5158 14.2074C13.7488 14.9581 12.8268 15.3334 11.7497 15.3334ZM23.4997 15.3334C22.4226 15.3334 21.5005 14.9581 20.7335 14.2074C19.9665 13.4567 19.583 12.5542 19.583 11.5001C19.583 10.4459 19.9665 9.54348 20.7335 8.79279C21.5005 8.0421 22.4226 7.66675 23.4997 7.66675C24.5768 7.66675 25.4988 8.0421 26.2658 8.79279C27.0328 9.54348 27.4163 10.4459 27.4163 11.5001C27.4163 12.5542 27.0328 13.4567 26.2658 14.2074C25.4988 14.9581 24.5768 15.3334 23.4997 15.3334ZM35.2497 15.3334C34.1726 15.3334 33.2505 14.9581 32.4835 14.2074C31.7165 13.4567 31.333 12.5542 31.333 11.5001C31.333 10.4459 31.7165 9.54348 32.4835 8.79279C33.2505 8.0421 34.1726 7.66675 35.2497 7.66675C36.3268 7.66675 37.2488 8.0421 38.0158 8.79279C38.7828 9.54348 39.1663 10.4459 39.1663 11.5001C39.1663 12.5542 38.7828 13.4567 38.0158 14.2074C37.2488 14.9581 36.3268 15.3334 35.2497 15.3334ZM23.4997 26.8334C22.4226 26.8334 21.5005 26.4581 20.7335 25.7074C19.9665 24.9567 19.583 24.0542 19.583 23.0001C19.583 21.9459 19.9665 21.0435 20.7335 20.2928C21.5005 19.5421 22.4226 19.1667 23.4997 19.1667C24.5768 19.1667 25.4988 19.5421 26.2658 20.2928C27.0328 21.0435 27.4163 21.9459 27.4163 23.0001C27.4163 24.0542 27.0328 24.9567 26.2658 25.7074C25.4988 26.4581 24.5768 26.8334 23.4997 26.8334ZM25.458 38.3334V32.4397L36.2778 21.898C36.5716 21.6105 36.8979 21.4029 37.257 21.2751C37.616 21.1473 37.975 21.0834 38.3341 21.0834C38.7257 21.0834 39.1011 21.1553 39.4601 21.299C39.8191 21.4428 40.1455 21.6584 40.4393 21.9459L42.2507 23.7188C42.5118 24.0063 42.7158 24.3258 42.8627 24.6772C43.0096 25.0286 43.083 25.3799 43.083 25.7313C43.083 26.0827 43.0177 26.4421 42.8872 26.8095C42.7566 27.1768 42.5445 27.5042 42.2507 27.7917L31.4799 38.3334H25.458ZM28.3955 35.4584H30.2559L36.1799 29.6126L35.2986 28.7022L34.3684 27.8397L28.3955 33.6376V35.4584ZM35.2986 28.7022L34.3684 27.8397L36.1799 29.6126L35.2986 28.7022Z" fill="#1D2F6F"/>
</svg>
