<svg width="47" height="46" viewBox="0 0 47 46" fill="none" xmlns="http://www.w3.org/2000/svg">
<path d="M1.95866 7.66675L13.7087 7.66675L13.7087 12.4584L17.6253 12.4584L17.6253 7.66675L29.3753 7.66675L29.3753 12.4584L33.292 12.4584L33.292 7.66675L45.042 7.66675L45.042 21.0834L33.292 21.0834L33.292 16.2917L29.3753 16.2917L29.3753 21.0834L25.4587 21.0834L25.4587 26.8334L29.3753 26.8334L29.3753 40.2501L17.6253 40.2501L17.6253 26.8334L21.542 26.8334L21.542 21.0834L17.6253 21.0834L17.6253 16.2917L13.7087 16.2917L13.7087 21.0834L1.95866 21.0834L1.95866 7.66675ZM5.87533 11.5001L5.87533 17.2501L9.79199 17.2501L9.79199 11.5001L5.87533 11.5001ZM21.542 11.5001L21.542 17.2501L25.4587 17.2501L25.4587 11.5001L21.542 11.5001ZM21.542 30.6667L21.542 36.4167L25.4587 36.4167L25.4587 30.6667L21.542 30.6667ZM37.2087 11.5001L37.2087 17.2501L41.1253 17.2501L41.1253 11.5001L37.2087 11.5001Z" fill="#1D2F6F"/>
</svg>
