<svg width="46" height="46" viewBox="0 0 46 46" fill="none" xmlns="http://www.w3.org/2000/svg">
<path d="M11.5 42.1666V33.9249C9.67917 32.2638 8.26563 30.3232 7.25938 28.103C6.25313 25.8829 5.75 23.543 5.75 21.0833C5.75 16.2916 7.42708 12.2187 10.7813 8.8645C14.1354 5.51034 18.2083 3.83325 23 3.83325C26.9931 3.83325 30.5309 5.00721 33.6135 7.35513C36.6962 9.70304 38.7007 12.7617 39.6271 16.5312L42.1188 26.3541C42.2785 26.961 42.1667 27.5121 41.7833 28.0072C41.4 28.5023 40.8889 28.7499 40.25 28.7499H36.4167V34.4999C36.4167 35.5541 36.0413 36.4565 35.2906 37.2072C34.5399 37.9579 33.6375 38.3333 32.5833 38.3333H28.75V42.1666H24.9167V34.4999H32.5833V24.9166H37.7583L35.9375 17.4895C35.2028 14.5826 33.6375 12.2187 31.2417 10.3978C28.8458 8.577 26.0986 7.66659 23 7.66659C19.2944 7.66659 16.1319 8.96034 13.5125 11.5478C10.8931 14.1353 9.58333 17.2819 9.58333 20.9874C9.58333 22.9041 9.97465 24.7249 10.7573 26.4499C11.5399 28.1749 12.65 29.7083 14.0875 31.0499L15.3333 32.1999V42.1666H11.5ZM23 30.6666C23.5431 30.6666 23.9983 30.4829 24.3656 30.1155C24.733 29.7482 24.9167 29.293 24.9167 28.7499C24.9167 28.2069 24.733 27.7517 24.3656 27.3843C23.9983 27.0169 23.5431 26.8333 23 26.8333C22.4569 26.8333 22.0017 27.0169 21.6344 27.3843C21.267 27.7517 21.0833 28.2069 21.0833 28.7499C21.0833 29.293 21.267 29.7482 21.6344 30.1155C22.0017 30.4829 22.4569 30.6666 23 30.6666ZM21.5625 24.5333H24.4854C24.4854 23.7346 24.5892 23.0878 24.7969 22.5926C25.0045 22.0975 25.4278 21.4985 26.0667 20.7958C26.6417 20.1569 27.2007 19.51 27.7438 18.8551C28.2868 18.2003 28.5583 17.3458 28.5583 16.2916C28.5583 14.9499 28.0392 13.8159 27.001 12.8895C25.9628 11.9631 24.6771 11.4999 23.1438 11.4999C21.866 11.4999 20.708 11.8673 19.6698 12.602C18.6316 13.3367 17.9049 14.2951 17.4896 15.477L20.125 16.5791C20.3486 15.8763 20.7399 15.3093 21.299 14.878C21.858 14.4468 22.4729 14.2312 23.1438 14.2312C23.8465 14.2312 24.4295 14.4228 24.8927 14.8062C25.3559 15.1895 25.5875 15.6846 25.5875 16.2916C25.5875 16.9624 25.3878 17.5614 24.9885 18.0885C24.5892 18.6155 24.1181 19.1506 23.575 19.6937C22.9361 20.3645 22.441 21.0353 22.0896 21.7062C21.7382 22.377 21.5625 23.3194 21.5625 24.5333Z" fill="#1D2F6F"/>
</svg>
