<svg width="46" height="46" viewBox="0 0 46 46" fill="none" xmlns="http://www.w3.org/2000/svg">
<path d="M15.3337 34.4999H30.667V30.6666H15.3337V34.4999ZM15.3337 26.8333H30.667V22.9999H15.3337V26.8333ZM11.5003 42.1666C10.4462 42.1666 9.54373 41.7912 8.79303 41.0405C8.04234 40.2898 7.66699 39.3874 7.66699 38.3333V7.66659C7.66699 6.61242 8.04234 5.70999 8.79303 4.95929C9.54373 4.2086 10.4462 3.83325 11.5003 3.83325H26.8337L38.3337 15.3333V38.3333C38.3337 39.3874 37.9583 40.2898 37.2076 41.0405C36.4569 41.7912 35.5545 42.1666 34.5003 42.1666H11.5003ZM24.917 17.2499V7.66659H11.5003V38.3333H34.5003V17.2499H24.917Z" fill="#1D2F6F"/>
</svg>
