<svg width="47" height="46" viewBox="0 0 47 46" fill="none" xmlns="http://www.w3.org/2000/svg">
<path d="M4 42.1663V30.6663H15.75V42.1663H4ZM17.7083 42.1663V30.6663H29.4583V42.1663H17.7083ZM31.4167 42.1663V30.6663H43.1667V42.1663H31.4167ZM4 28.7497V17.2497H15.75V28.7497H4ZM17.7083 28.7497V17.2497H29.4583V28.7497H17.7083ZM31.4167 28.7497V17.2497H43.1667V28.7497H31.4167ZM4 15.333V3.83301H29.4583V15.333H4ZM31.4167 15.333V3.83301H43.1667V15.333H31.4167ZM7.91667 38.333H11.8333V34.4997H7.91667V38.333ZM21.625 38.333H25.5417V34.4997H21.625V38.333ZM35.3333 38.333H39.25V34.4997H35.3333V38.333ZM7.91667 24.9163H11.8333V21.083H7.91667V24.9163ZM21.625 24.9163H25.5417V21.083H21.625V24.9163ZM35.3333 24.9163H39.25V21.083H35.3333V24.9163ZM35.3333 11.4997H39.25V7.66634H35.3333V11.4997Z" fill="#1D2F6F"/>
</svg>
